[x11grab @ 0x55f12712e000] Stream #0: not enough frames to estimate rate; consider increasing probesize
Input #0, x11grab, from ':99.0+0,0':
  Duration: N/A, start: 1783517551.810580, bitrate: 983520 kb/s
  Stream #0:0: Video: rawvideo (BGR[0] / 0x524742), bgr0, 1366x900, 983520 kb/s, 25 fps, 1000k tbr, 1000k tbn
Stream mapping:
  Stream #0:0 -> #0:0 (rawvideo (native) -> h264 (libx264))
Press [q] to stop, [?] for help
[libx264 @ 0x55f127136d40] using cpu capabilities: MMX2 SSE2Fast SSSE3 SSE4.2 AVX FMA3 BMI2 AVX2
[libx264 @ 0x55f127136d40] profile High, level 3.2, 4:2:0, 8-bit
[libx264 @ 0x55f127136d40] 264 - core 164 r3108 31e19f9 - H.264/MPEG-4 AVC codec - Copyleft 2003-2023 - http://www.videolan.org/x264.html - options: cabac=1 ref=1 deblock=1:0:0 analyse=0x3:0x113 me=hex subme=2 psy=1 psy_rd=1.00:0.00 mixed_ref=0 me_range=16 chroma_me=1 trellis=0 8x8dct=1 cqm=0 deadzone=21,11 fast_pskip=1 chroma_qp_offset=0 threads=3 lookahead_threads=1 sliced_threads=0 nr=0 decimate=1 interlaced=0 bluray_compat=0 constrained_intra=0 bframes=3 b_pyramid=2 b_adapt=1 b_bias=0 direct=1 weightb=1 open_gop=0 weightp=1 keyint=250 keyint_min=25 scenecut=40 intra_refresh=0 rc_lookahead=10 rc=crf mbtree=1 crf=23.0 qcomp=0.60 qpmin=0 qpmax=69 qpstep=4 ip_ratio=1.40 aq=1:1.00
Output #0, mp4, to '/home/runner/work/Auto_Browser/Auto_Browser/recordings/oncc/latest.mp4':
  Metadata:
    encoder         : Lavf60.16.100
  Stream #0:0: Video: h264 (avc1 / 0x31637661), yuv420p(tv, progressive), 1366x900, q=2-31, 25 fps, 12800 tbn
    Metadata:
      encoder         : Lavc60.31.102 libx264
    Side data:
      cpb: bitrate max/min/avg: 0/0/0 buffer size: 0 vbv_delay: N/A
frame=    0 fps=0.0 q=0.0 size=       0kB time=N/A bitrate=N/A speed=N/A    frame=    0 fps=0.0 q=0.0 size=       0kB time=N/A bitrate=N/A speed=N/A    frame=   11 fps= 11 q=28.0 size=       0kB time=00:00:00.36 bitrate=   1.1kbits/s speed=0.346x    frame=   24 fps= 15 q=28.0 size=       0kB time=00:00:00.88 bitrate=   0.4kbits/s speed=0.564x    frame=   37 fps= 18 q=28.0 size=       0kB time=00:00:01.40 bitrate=   0.3kbits/s speed=0.673x    frame=   51 fps= 20 q=28.0 size=       0kB time=00:00:01.92 bitrate=   0.2kbits/s speed=0.738x    frame=   64 fps= 21 q=28.0 size=     256kB time=00:00:02.44 bitrate= 859.6kbits/s speed=0.782x    frame=   77 fps= 21 q=28.0 size=     256kB time=00:00:02.96 bitrate= 708.6kbits/s speed=0.813x    frame=   89 fps= 21 q=28.0 size=     256kB time=00:00:03.48 bitrate= 602.7kbits/s speed=0.837x    frame=  102 fps= 22 q=28.0 size=     256kB time=00:00:04.00 bitrate= 524.4kbits/s speed=0.855x    frame=  115 fps= 22 q=28.0 size=     256kB time=00:00:04.52 bitrate= 464.1kbits/s speed=0.869x    frame=  129 fps= 23 q=28.0 size=     256kB time=00:00:05.04 bitrate= 416.2kbits/s speed=0.881x    frame=  141 fps= 23 q=28.0 size=     256kB time=00:00:05.56 bitrate= 377.3kbits/s speed=0.891x    frame=  154 fps= 23 q=28.0 size=     256kB time=00:00:06.08 bitrate= 345.0kbits/s speed=0.899x    frame=  167 fps= 23 q=28.0 size=     256kB time=00:00:06.60 bitrate= 317.8kbits/s speed=0.907x    frame=  180 fps= 23 q=28.0 size=     512kB time=00:00:07.12 bitrate= 589.1kbits/s speed=0.913x    frame=  193 fps= 23 q=28.0 size=     512kB time=00:00:07.64 bitrate= 549.0kbits/s speed=0.918x    frame=  207 fps= 23 q=28.0 size=     512kB time=00:00:08.16 bitrate= 514.1kbits/s speed=0.923x    frame=  220 fps= 24 q=28.0 size=     512kB time=00:00:08.68 bitrate= 483.3kbits/s speed=0.927x    frame=  232 fps= 23 q=28.0 size=     512kB time=00:00:09.20 bitrate= 455.9kbits/s speed=0.931x    frame=  246 fps= 24 q=28.0 size=     512kB time=00:00:09.72 bitrate= 431.6kbits/s speed=0.934x    frame=  259 fps= 24 q=28.0 size=     768kB time=00:00:10.24 bitrate= 614.4kbits/s speed=0.938x    frame=  271 fps= 24 q=28.0 size=     768kB time=00:00:10.76 bitrate= 584.7kbits/s speed=0.941x    frame=  285 fps= 24 q=28.0 size=     768kB time=00:00:11.28 bitrate= 557.8kbits/s speed=0.943x    frame=  297 fps= 24 q=28.0 size=     768kB time=00:00:11.80 bitrate= 533.2kbits/s speed=0.946x    frame=  311 fps= 24 q=28.0 size=     768kB time=00:00:12.32 bitrate= 510.7kbits/s speed=0.948x    frame=  323 fps= 24 q=28.0 size=     768kB time=00:00:12.84 bitrate= 490.0kbits/s speed=0.95x    frame=  337 fps= 24 q=28.0 size=     768kB time=00:00:13.36 bitrate= 470.9kbits/s speed=0.952x    frame=  350 fps= 24 q=28.0 size=     768kB time=00:00:13.88 bitrate= 453.3kbits/s speed=0.953x    frame=  362 fps= 24 q=28.0 size=     768kB time=00:00:14.40 bitrate= 436.9kbits/s speed=0.955x    frame=  376 fps= 24 q=28.0 size=    1024kB time=00:00:14.92 bitrate= 562.3kbits/s speed=0.956x    frame=  388 fps= 24 q=28.0 size=    1024kB time=00:00:15.44 bitrate= 543.3kbits/s speed=0.958x    frame=  402 fps= 24 q=28.0 size=    1024kB time=00:00:15.96 bitrate= 525.6kbits/s speed=0.959x    frame=  414 fps= 24 q=28.0 size=    1024kB time=00:00:16.48 bitrate= 509.0kbits/s speed=0.96x    frame=  428 fps= 24 q=28.0 size=    1024kB time=00:00:17.00 bitrate= 493.5kbits/s speed=0.961x    frame=  440 fps= 24 q=28.0 size=    1024kB time=00:00:17.52 bitrate= 478.8kbits/s speed=0.963x    frame=  453 fps= 24 q=28.0 size=    1024kB time=00:00:18.04 bitrate= 465.0kbits/s speed=0.964x    frame=  467 fps= 24 q=28.0 size=    1024kB time=00:00:18.56 bitrate= 452.0kbits/s speed=0.965x    frame=  480 fps= 24 q=28.0 size=    1024kB time=00:00:19.08 bitrate= 439.7kbits/s speed=0.966x    frame=  492 fps= 24 q=28.0 size=    1024kB time=00:00:19.60 bitrate= 428.0kbits/s speed=0.966x    frame=  505 fps= 24 q=28.0 size=    1280kB time=00:00:20.12 bitrate= 521.2kbits/s speed=0.967x    frame=  519 fps= 24 q=28.0 size=    1280kB time=00:00:20.64 bitrate= 508.0kbits/s speed=0.968x    frame=  532 fps= 24 q=28.0 size=    1280kB time=00:00:21.16 bitrate= 495.6kbits/s speed=0.969x    frame=  544 fps= 24 q=28.0 size=    1280kB time=00:00:21.68 bitrate= 483.7kbits/s speed=0.97x    frame=  557 fps= 24 q=28.0 size=    1280kB time=00:00:22.20 bitrate= 472.3kbits/s speed=0.97x    frame=  571 fps= 24 q=28.0 size=    1280kB time=00:00:22.72 bitrate= 461.5kbits/s speed=0.971x    frame=  583 fps= 24 q=28.0 size=    1536kB time=00:00:23.24 bitrate= 541.4kbits/s speed=0.972x    frame=  596 fps= 24 q=28.0 size=    1536kB time=00:00:23.76 bitrate= 529.6kbits/s speed=0.972x    frame=  610 fps= 24 q=28.0 size=    1536kB time=00:00:24.28 bitrate= 518.3kbits/s speed=0.973x    frame=  622 fps= 24 q=28.0 size=    1536kB time=00:00:24.80 bitrate= 507.4kbits/s speed=0.973x    frame=  636 fps= 24 q=28.0 size=    1536kB time=00:00:25.32 bitrate= 497.0kbits/s speed=0.974x    frame=  649 fps= 24 q=28.0 size=    1536kB time=00:00:25.84 bitrate= 487.0kbits/s speed=0.974x    frame=  662 fps= 24 q=28.0 size=    1536kB time=00:00:26.36 bitrate= 477.4kbits/s speed=0.975x    frame=  675 fps= 24 q=28.0 size=    1536kB time=00:00:26.88 bitrate= 468.1kbits/s speed=0.975x    frame=  688 fps= 25 q=28.0 size=    1536kB time=00:00:27.40 bitrate= 459.2kbits/s speed=0.976x    frame=  700 fps= 24 q=28.0 size=    1536kB time=00:00:27.92 bitrate= 450.7kbits/s speed=0.976x    frame=  713 fps= 24 q=28.0 size=    1536kB time=00:00:28.44 bitrate= 442.5kbits/s speed=0.977x    frame=  726 fps= 24 q=28.0 size=    1536kB time=00:00:28.96 bitrate= 434.5kbits/s speed=0.977x    frame=  740 fps= 25 q=28.0 size=    1536kB time=00:00:29.48 bitrate= 426.8kbits/s speed=0.977x    frame=  752 fps= 25 q=28.0 size=    1792kB time=00:00:30.00 bitrate= 489.3kbits/s speed=0.978x    frame=  765 fps= 25 q=28.0 size=    1792kB time=00:00:30.52 bitrate= 481.0kbits/s speed=0.978x    frame=  779 fps= 25 q=28.0 size=    1792kB time=00:00:31.04 bitrate= 473.0kbits/s speed=0.979x    frame=  791 fps= 25 q=28.0 size=    1792kB time=00:00:31.56 bitrate= 465.2kbits/s speed=0.979x    frame=  804 fps= 25 q=28.0 size=    1792kB time=00:00:32.08 bitrate= 457.6kbits/s speed=0.979x    frame=  817 fps= 25 q=28.0 size=    1792kB time=00:00:32.60 bitrate= 450.3kbits/s speed=0.98x    frame=  830 fps= 25 q=28.0 size=    1792kB time=00:00:33.12 bitrate= 443.3kbits/s speed=0.98x    frame=  843 fps= 25 q=28.0 size=    1792kB time=00:00:33.64 bitrate= 436.4kbits/s speed=0.98x    frame=  856 fps= 25 q=28.0 size=    1792kB time=00:00:34.16 bitrate= 429.8kbits/s speed=0.98x    frame=  869 fps= 25 q=28.0 size=    1792kB time=00:00:34.68 bitrate= 423.3kbits/s speed=0.981x    frame=  883 fps= 25 q=28.0 size=    1792kB time=00:00:35.20 bitrate= 417.1kbits/s speed=0.981x    frame=  896 fps= 25 q=28.0 size=    2048kB time=00:00:35.72 bitrate= 469.7kbits/s speed=0.981x    frame=  908 fps= 25 q=28.0 size=    2048kB time=00:00:36.24 bitrate= 463.0kbits/s speed=0.982x    frame=  921 fps= 25 q=28.0 size=    2048kB time=00:00:36.76 bitrate= 456.4kbits/s speed=0.982x    frame=  934 fps= 25 q=28.0 size=    2048kB time=00:00:37.28 bitrate= 450.0kbits/s speed=0.982x    frame=  947 fps= 25 q=28.0 size=    2048kB time=00:00:37.80 bitrate= 443.9kbits/s speed=0.982x    frame=  961 fps= 25 q=28.0 size=    2048kB time=00:00:38.32 bitrate= 437.8kbits/s speed=0.983x    frame=  974 fps= 25 q=28.0 size=    2048kB time=00:00:38.84 bitrate= 432.0kbits/s speed=0.983x    frame=  986 fps= 25 q=28.0 size=    2048kB time=00:00:39.36 bitrate= 426.3kbits/s speed=0.983x    frame=  999 fps= 25 q=28.0 size=    2048kB time=00:00:39.88 bitrate= 420.7kbits/s speed=0.983x    frame= 1013 fps= 25 q=28.0 size=    2048kB time=00:00:40.40 bitrate= 415.3kbits/s speed=0.983x    frame= 1025 fps= 25 q=28.0 size=    2048kB time=00:00:40.92 bitrate= 410.0kbits/s speed=0.984x    frame= 1038 fps= 25 q=28.0 size=    2304kB time=00:00:41.44 bitrate= 455.5kbits/s speed=0.984x    frame= 1052 fps= 25 q=28.0 size=    2304kB time=00:00:41.96 bitrate= 449.8kbits/s speed=0.984x    frame= 1064 fps= 25 q=28.0 size=    2304kB time=00:00:42.48 bitrate= 444.3kbits/s speed=0.984x    frame= 1077 fps= 25 q=28.0 size=    2304kB time=00:00:43.00 bitrate= 438.9kbits/s speed=0.984x    frame= 1090 fps= 25 q=28.0 size=    2304kB time=00:00:43.52 bitrate= 433.7kbits/s speed=0.985x    frame= 1103 fps= 25 q=28.0 size=    2304kB time=00:00:44.04 bitrate= 428.6kbits/s speed=0.985x    frame= 1117 fps= 25 q=28.0 size=    2304kB time=00:00:44.56 bitrate= 423.6kbits/s speed=0.985x    frame= 1129 fps= 25 q=28.0 size=    2304kB time=00:00:45.08 bitrate= 418.7kbits/s speed=0.985x    frame= 1142 fps= 25 q=28.0 size=    2304kB time=00:00:45.60 bitrate= 413.9kbits/s speed=0.985x    frame= 1156 fps= 25 q=28.0 size=    2304kB time=00:00:46.12 bitrate= 409.3kbits/s speed=0.985x    frame= 1168 fps= 25 q=28.0 size=    2304kB time=00:00:46.64 bitrate= 404.7kbits/s speed=0.986x    frame= 1181 fps= 25 q=28.0 size=    2304kB time=00:00:47.16 bitrate= 400.2kbits/s speed=0.986x    frame= 1195 fps= 25 q=28.0 size=    2304kB time=00:00:47.68 bitrate= 395.9kbits/s speed=0.986x    frame= 1208 fps= 25 q=28.0 size=    2304kB time=00:00:48.20 bitrate= 391.6kbits/s speed=0.986x    frame= 1220 fps= 25 q=28.0 size=    2304kB time=00:00:48.72 bitrate= 387.4kbits/s speed=0.986x    frame= 1234 fps= 25 q=28.0 size=    2304kB time=00:00:49.24 bitrate= 383.3kbits/s speed=0.986x    frame= 1247 fps= 25 q=28.0 size=    2304kB time=00:00:49.76 bitrate= 379.3kbits/s speed=0.986x    frame= 1259 fps= 25 q=28.0 size=    2560kB time=00:00:50.28 bitrate= 417.1kbits/s speed=0.987x    frame= 1272 fps= 25 q=28.0 size=    2560kB time=00:00:50.80 bitrate= 412.8kbits/s speed=0.987x    frame= 1286 fps= 25 q=28.0 size=    2560kB time=00:00:51.32 bitrate= 408.6kbits/s speed=0.987x    frame= 1299 fps= 25 q=28.0 size=    2560kB time=00:00:51.84 bitrate= 404.6kbits/s speed=0.987x    frame= 1311 fps= 25 q=28.0 size=    2560kB time=00:00:52.36 bitrate= 400.5kbits/s speed=0.987x    frame= 1325 fps= 25 q=28.0 size=    2560kB time=00:00:52.88 bitrate= 396.6kbits/s speed=0.987x    frame= 1337 fps= 25 q=28.0 size=    2560kB time=00:00:53.40 bitrate= 392.7kbits/s speed=0.987x    frame= 1351 fps= 25 q=28.0 size=    2560kB time=00:00:53.92 bitrate= 388.9kbits/s speed=0.988x    frame= 1363 fps= 25 q=28.0 size=    2560kB time=00:00:54.44 bitrate= 385.2kbits/s speed=0.988x    frame= 1376 fps= 25 q=28.0 size=    2560kB time=00:00:54.96 bitrate= 381.6kbits/s speed=0.988x    frame= 1389 fps= 25 q=28.0 size=    2560kB time=00:00:55.48 bitrate= 378.0kbits/s speed=0.988x    frame= 1402 fps= 25 q=28.0 size=    2560kB time=00:00:56.00 bitrate= 374.5kbits/s speed=0.988x    frame= 1415 fps= 25 q=28.0 size=    2560kB time=00:00:56.52 bitrate= 371.1kbits/s speed=0.988x    frame= 1428 fps= 25 q=28.0 size=    2560kB time=00:00:57.04 bitrate= 367.7kbits/s speed=0.988x    frame= 1441 fps= 25 q=28.0 size=    2560kB time=00:00:57.56 bitrate= 364.3kbits/s speed=0.988x    frame= 1454 fps= 25 q=28.0 size=    2560kB time=00:00:58.08 bitrate= 361.1kbits/s speed=0.988x    frame= 1468 fps= 25 q=28.0 size=    2560kB time=00:00:58.60 bitrate= 357.9kbits/s speed=0.989x    frame= 1481 fps= 25 q=28.0 size=    2560kB time=00:00:59.12 bitrate= 354.7kbits/s speed=0.989x    frame= 1494 fps= 25 q=28.0 size=    2560kB time=00:00:59.64 bitrate= 351.6kbits/s speed=0.989x    frame= 1507 fps= 25 q=28.0 size=    2816kB time=00:01:00.16 bitrate= 383.5kbits/s speed=0.989x    frame= 1519 fps= 25 q=28.0 size=    2816kB time=00:01:00.68 bitrate= 380.2kbits/s speed=0.989x    frame= 1532 fps= 25 q=28.0 size=    2816kB time=00:01:01.20 bitrate= 376.9kbits/s speed=0.989x    frame= 1546 fps= 25 q=28.0 size=    2816kB time=00:01:01.72 bitrate= 373.8kbits/s speed=0.989x    frame= 1559 fps= 25 q=28.0 size=    2816kB time=00:01:02.24 bitrate= 370.6kbits/s speed=0.989x    frame= 1571 fps= 25 q=28.0 size=    2816kB time=00:01:02.76 bitrate= 367.6kbits/s speed=0.989x    frame= 1585 fps= 25 q=28.0 size=    2816kB time=00:01:03.28 bitrate= 364.6kbits/s speed=0.989x    frame= 1598 fps= 25 q=28.0 size=    2816kB time=00:01:03.80 bitrate= 361.6kbits/s speed=0.989x    frame= 1610 fps= 25 q=28.0 size=    2816kB time=00:01:04.32 bitrate= 358.7kbits/s speed=0.99x    frame= 1623 fps= 25 q=28.0 size=    2816kB time=00:01:04.84 bitrate= 355.8kbits/s speed=0.99x    frame= 1637 fps= 25 q=28.0 size=    2816kB time=00:01:05.36 bitrate= 353.0kbits/s speed=0.99x    frame= 1650 fps= 25 q=28.0 size=    2816kB time=00:01:05.88 bitrate= 350.2kbits/s speed=0.99x    frame= 1662 fps= 25 q=28.0 size=    2816kB time=00:01:06.40 bitrate= 347.4kbits/s speed=0.99x    frame= 1675 fps= 25 q=28.0 size=    2816kB time=00:01:06.92 bitrate= 344.7kbits/s speed=0.99x    frame= 1689 fps= 25 q=28.0 size=    2816kB time=00:01:07.44 bitrate= 342.1kbits/s speed=0.99x    frame= 1701 fps= 25 q=28.0 size=    3072kB time=00:01:07.96 bitrate= 370.3kbits/s speed=0.99x    frame= 1714 fps= 25 q=28.0 size=    3072kB time=00:01:08.48 bitrate= 367.5kbits/s speed=0.99x    frame= 1727 fps= 25 q=28.0 size=    3072kB time=00:01:09.00 bitrate= 364.7kbits/s speed=0.99x    frame= 1740 fps= 25 q=28.0 size=    3072kB time=00:01:09.52 bitrate= 362.0kbits/s speed=0.99x    frame= 1754 fps= 25 q=28.0 size=    3072kB time=00:01:10.04 bitrate= 359.3kbits/s speed=0.99x    frame= 1767 fps= 25 q=28.0 size=    3072kB time=00:01:10.56 bitrate= 356.7kbits/s speed=0.99x    frame= 1779 fps= 25 q=28.0 size=    3328kB time=00:01:11.08 bitrate= 383.6kbits/s speed=0.991x    frame= 1792 fps= 25 q=28.0 size=    3328kB time=00:01:11.60 bitrate= 380.8kbits/s speed=0.991x    frame= 1805 fps= 25 q=28.0 size=    3328kB time=00:01:12.12 bitrate= 378.0kbits/s speed=0.991x    frame= 1818 fps= 25 q=28.0 size=    3328kB time=00:01:12.64 bitrate= 375.3kbits/s speed=0.991x    frame= 1832 fps= 25 q=28.0 size=    3328kB time=00:01:13.16 bitrate= 372.7kbits/s speed=0.991x    frame= 1845 fps= 25 q=28.0 size=    3328kB time=00:01:13.68 bitrate= 370.0kbits/s speed=0.991x    frame= 1857 fps= 25 q=28.0 size=    3328kB time=00:01:14.20 bitrate= 367.4kbits/s speed=0.991x    frame= 1870 fps= 25 q=28.0 size=    3328kB time=00:01:14.72 bitrate= 364.9kbits/s speed=0.991x    frame= 1884 fps= 25 q=28.0 size=    3328kB time=00:01:15.24 bitrate= 362.4kbits/s speed=0.991x    frame= 1896 fps= 25 q=28.0 size=    3328kB time=00:01:15.76 bitrate= 359.9kbits/s speed=0.991x    frame= 1909 fps= 25 q=28.0 size=    3328kB time=00:01:16.28 bitrate= 357.4kbits/s speed=0.991x    frame= 1923 fps= 25 q=28.0 size=    3584kB time=00:01:16.80 bitrate= 382.3kbits/s speed=0.991x    frame= 1935 fps= 25 q=28.0 size=    3584kB time=00:01:17.32 bitrate= 379.7kbits/s speed=0.991x    frame= 1949 fps= 25 q=28.0 size=    3584kB time=00:01:17.84 bitrate= 377.2kbits/s speed=0.991x    frame= 1961 fps= 25 q=28.0 size=    3584kB time=00:01:18.36 bitrate= 374.7kbits/s speed=0.991x    frame= 1974 fps= 25 q=28.0 size=    3584kB time=00:01:18.88 bitrate= 372.2kbits/s speed=0.991x    frame= 1988 fps= 25 q=28.0 size=    3584kB time=00:01:19.40 bitrate= 369.8kbits/s speed=0.992x    frame= 2000 fps= 25 q=28.0 size=    3584kB time=00:01:19.92 bitrate= 367.4kbits/s speed=0.992x    frame= 2013 fps= 25 q=28.0 size=    3840kB time=00:01:20.44 bitrate= 391.1kbits/s speed=0.992x    frame= 2026 fps= 25 q=28.0 size=    3840kB time=00:01:20.96 bitrate= 388.6kbits/s speed=0.992x    frame= 2039 fps= 25 q=28.0 size=    3840kB time=00:01:21.48 bitrate= 386.1kbits/s speed=0.992x    frame= 2052 fps= 25 q=28.0 size=    3840kB time=00:01:22.00 bitrate= 383.6kbits/s speed=0.992x    frame= 2065 fps= 25 q=28.0 size=    3840kB time=00:01:22.52 bitrate= 381.2kbits/s speed=0.992x    frame= 2078 fps= 25 q=28.0 size=    4096kB time=00:01:23.04 bitrate= 404.1kbits/s speed=0.992x    frame= 2091 fps= 25 q=28.0 size=    4096kB time=00:01:23.56 bitrate= 401.6kbits/s speed=0.992x    frame= 2104 fps= 25 q=28.0 size=    4096kB time=00:01:24.08 bitrate= 399.1kbits/s speed=0.992x    frame= 2118 fps= 25 q=28.0 size=    4096kB time=00:01:24.60 bitrate= 396.6kbits/s speed=0.992x    frame= 2130 fps= 25 q=28.0 size=    4096kB time=00:01:25.12 bitrate= 394.2kbits/s speed=0.992x    frame= 2143 fps= 25 q=28.0 size=    4096kB time=00:01:25.64 bitrate= 391.8kbits/s speed=0.992x    frame= 2156 fps= 25 q=28.0 size=    4096kB time=00:01:26.16 bitrate= 389.4kbits/s speed=0.992x    frame= 2169 fps= 25 q=28.0 size=    4352kB time=00:01:26.68 bitrate= 411.3kbits/s speed=0.992x    frame= 2182 fps= 25 q=28.0 size=    4352kB time=00:01:27.20 bitrate= 408.9kbits/s speed=0.992x    frame= 2195 fps= 25 q=28.0 size=    4352kB time=00:01:27.72 bitrate= 406.4kbits/s speed=0.992x    frame= 2209 fps= 25 q=28.0 size=    4352kB time=00:01:28.24 bitrate= 404.0kbits/s speed=0.992x    frame= 2221 fps= 25 q=28.0 size=    4352kB time=00:01:28.76 bitrate= 401.7kbits/s speed=0.992x    frame= 2235 fps= 25 q=28.0 size=    4352kB time=00:01:29.28 bitrate= 399.3kbits/s speed=0.992x    frame= 2247 fps= 25 q=28.0 size=    4608kB time=00:01:29.80 bitrate= 420.4kbits/s speed=0.992x    frame= 2260 fps= 25 q=28.0 size=    4608kB time=00:01:30.32 bitrate= 417.9kbits/s speed=0.993x    frame= 2273 fps= 25 q=28.0 size=    4864kB time=00:01:30.84 bitrate= 438.6kbits/s speed=0.993x    frame= 2286 fps= 25 q=28.0 size=    4864kB time=00:01:31.36 bitrate= 436.1kbits/s speed=0.993x    frame= 2300 fps= 25 q=28.0 size=    4864kB time=00:01:31.88 bitrate= 433.7kbits/s speed=0.993x    frame= 2312 fps= 25 q=28.0 size=    4864kB time=00:01:32.40 bitrate= 431.2kbits/s speed=0.993x    frame= 2326 fps= 25 q=28.0 size=    4864kB time=00:01:32.92 bitrate= 428.8kbits/s speed=0.993x    frame= 2339 fps= 25 q=28.0 size=    4864kB time=00:01:33.44 bitrate= 426.4kbits/s speed=0.993x    frame= 2352 fps= 25 q=28.0 size=    4864kB time=00:01:33.96 bitrate= 424.1kbits/s speed=0.993x    frame= 2364 fps= 25 q=28.0 size=    4864kB time=00:01:34.48 bitrate= 421.7kbits/s speed=0.993x    frame= 2377 fps= 25 q=28.0 size=    4864kB time=00:01:35.00 bitrate= 419.4kbits/s speed=0.993x    frame= 2390 fps= 25 q=28.0 size=    4864kB time=00:01:35.52 bitrate= 417.2kbits/s speed=0.993x    frame= 2404 fps= 25 q=28.0 size=    4864kB time=00:01:36.04 bitrate= 414.9kbits/s speed=0.993x    frame= 2416 fps= 25 q=28.0 size=    4864kB time=00:01:36.56 bitrate= 412.7kbits/s speed=0.993x    frame= 2429 fps= 25 q=28.0 size=    4864kB time=00:01:37.08 bitrate= 410.4kbits/s speed=0.993x    frame= 2442 fps= 25 q=28.0 size=    4864kB time=00:01:37.60 bitrate= 408.3kbits/s speed=0.993x    frame= 2455 fps= 25 q=28.0 size=    5120kB time=00:01:38.12 bitrate= 427.5kbits/s speed=0.993x    frame= 2468 fps= 25 q=28.0 size=    5120kB time=00:01:38.64 bitrate= 425.2kbits/s speed=0.993x    frame= 2481 fps= 25 q=28.0 size=    5120kB time=00:01:39.16 bitrate= 423.0kbits/s speed=0.993x    frame= 2494 fps= 25 q=28.0 size=    5120kB time=00:01:39.68 bitrate= 420.8kbits/s speed=0.993x    frame= 2508 fps= 25 q=28.0 size=    5120kB time=00:01:40.20 bitrate= 418.6kbits/s speed=0.993x    frame= 2520 fps= 25 q=28.0 size=    5120kB time=00:01:40.72 bitrate= 416.4kbits/s speed=0.993x    frame= 2533 fps= 25 q=28.0 size=    5120kB time=00:01:41.24 bitrate= 414.3kbits/s speed=0.993x    frame= 2546 fps= 25 q=28.0 size=    5120kB time=00:01:41.76 bitrate= 412.2kbits/s speed=0.993x    frame= 2559 fps= 25 q=28.0 size=    5376kB time=00:01:42.28 bitrate= 430.6kbits/s speed=0.993x    frame= 2573 fps= 25 q=28.0 size=    5376kB time=00:01:42.80 bitrate= 428.4kbits/s speed=0.993x    frame= 2586 fps= 25 q=28.0 size=    5376kB time=00:01:43.32 bitrate= 426.3kbits/s speed=0.993x    frame= 2599 fps= 25 q=28.0 size=    5376kB time=00:01:43.84 bitrate= 424.1kbits/s speed=0.993x    frame= 2612 fps= 25 q=28.0 size=    5376kB time=00:01:44.36 bitrate= 422.0kbits/s speed=0.994x    frame= 2625 fps= 25 q=28.0 size=    5376kB time=00:01:44.88 bitrate= 419.9kbits/s speed=0.994x    frame= 2637 fps= 25 q=28.0 size=    5376kB time=00:01:45.40 bitrate= 417.8kbits/s speed=0.994x    frame= 2650 fps= 25 q=28.0 size=    5376kB time=00:01:45.92 bitrate= 415.8kbits/s speed=0.994x    frame= 2663 fps= 25 q=28.0 size=    5376kB time=00:01:46.44 bitrate= 413.8kbits/s speed=0.994x    frame= 2677 fps= 25 q=28.0 size=    5376kB time=00:01:46.96 bitrate= 411.7kbits/s speed=0.994x    frame= 2690 fps= 25 q=28.0 size=    5376kB time=00:01:47.48 bitrate= 409.8kbits/s speed=0.994x    frame= 2702 fps= 25 q=28.0 size=    5632kB time=00:01:48.00 bitrate= 427.2kbits/s speed=0.994x    frame= 2715 fps= 25 q=28.0 size=    5632kB time=00:01:48.52 bitrate= 425.2kbits/s speed=0.994x    frame= 2728 fps= 25 q=28.0 size=    5632kB time=00:01:49.04 bitrate= 423.1kbits/s speed=0.994x    frame= 2742 fps= 25 q=28.0 size=    5632kB time=00:01:49.56 bitrate= 421.1kbits/s speed=0.994x    frame= 2754 fps= 25 q=28.0 size=    5888kB time=00:01:50.08 bitrate= 438.2kbits/s speed=0.994x    frame= 2767 fps= 25 q=28.0 size=    5888kB time=00:01:50.60 bitrate= 436.1kbits/s speed=0.994x    frame= 2780 fps= 25 q=28.0 size=    5888kB time=00:01:51.12 bitrate= 434.1kbits/s speed=0.994x    frame= 2794 fps= 25 q=28.0 size=    5888kB time=00:01:51.64 bitrate= 432.1kbits/s speed=0.994x    frame= 2806 fps= 25 q=28.0 size=    5888kB time=00:01:52.16 bitrate= 430.1kbits/s speed=0.994x    frame= 2820 fps= 25 q=28.0 size=    5888kB time=00:01:52.68 bitrate= 428.1kbits/s speed=0.994x    frame= 2832 fps= 25 q=28.0 size=    6144kB time=00:01:53.20 bitrate= 444.6kbits/s speed=0.994x    frame= 2845 fps= 25 q=28.0 size=    6144kB time=00:01:53.72 bitrate= 442.6kbits/s speed=0.994x    frame= 2858 fps= 25 q=28.0 size=    6144kB time=00:01:54.24 bitrate= 440.6kbits/s speed=0.994x    frame= 2872 fps= 25 q=28.0 size=    6144kB time=00:01:54.76 bitrate= 438.6kbits/s speed=0.994x    frame= 2884 fps= 25 q=28.0 size=    6400kB time=00:01:55.28 bitrate= 454.8kbits/s speed=0.994x    frame= 2897 fps= 25 q=28.0 size=    6400kB time=00:01:55.80 bitrate= 452.8kbits/s speed=0.994x    frame= 2910 fps= 25 q=28.0 size=    6656kB time=00:01:56.32 bitrate= 468.8kbits/s speed=0.994x    frame= 2923 fps= 25 q=28.0 size=    6656kB time=00:01:56.84 bitrate= 466.7kbits/s speed=0.994x    frame= 2936 fps= 25 q=28.0 size=    6912kB time=00:01:57.36 bitrate= 482.5kbits/s speed=0.994x    frame= 2949 fps= 25 q=28.0 size=    6912kB time=00:01:57.88 bitrate= 480.3kbits/s speed=0.994x    frame= 2963 fps= 25 q=28.0 size=    6912kB time=00:01:58.40 bitrate= 478.2kbits/s speed=0.994x    frame= 2975 fps= 25 q=28.0 size=    6912kB time=00:01:58.92 bitrate= 476.1kbits/s speed=0.994x    frame= 2989 fps= 25 q=28.0 size=    7168kB time=00:01:59.44 bitrate= 491.6kbits/s speed=0.994x    frame= 3001 fps= 25 q=28.0 size=    7168kB time=00:01:59.96 bitrate= 489.5kbits/s speed=0.994x    frame= 3014 fps= 25 q=28.0 size=    7168kB time=00:02:00.48 bitrate= 487.4kbits/s speed=0.994x    frame= 3028 fps= 25 q=28.0 size=    7168kB time=00:02:01.00 bitrate= 485.3kbits/s speed=0.994x    frame= 3040 fps= 25 q=28.0 size=    7168kB time=00:02:01.52 bitrate= 483.2kbits/s speed=0.994x    frame= 3053 fps= 25 q=28.0 size=    7168kB time=00:02:02.04 bitrate= 481.2kbits/s speed=0.994x    frame= 3067 fps= 25 q=28.0 size=    7424kB time=00:02:02.56 bitrate= 496.2kbits/s speed=0.994x    frame= 3079 fps= 25 q=28.0 size=    7424kB time=00:02:03.08 bitrate= 494.1kbits/s speed=0.995x    frame= 3093 fps= 25 q=28.0 size=    7424kB time=00:02:03.60 bitrate= 492.1kbits/s speed=0.995x    frame= 3105 fps= 25 q=28.0 size=    7424kB time=00:02:04.12 bitrate= 490.0kbits/s speed=0.995x    frame= 3118 fps= 25 q=28.0 size=    7424kB time=00:02:04.64 bitrate= 487.9kbits/s speed=0.995x    frame= 3131 fps= 25 q=28.0 size=    7424kB time=00:02:05.16 bitrate= 485.9kbits/s speed=0.995x    frame= 3144 fps= 25 q=28.0 size=    7424kB time=00:02:05.68 bitrate= 483.9kbits/s speed=0.995x    frame= 3158 fps= 25 q=28.0 size=    7424kB time=00:02:06.20 bitrate= 481.9kbits/s speed=0.995x    frame= 3170 fps= 25 q=28.0 size=    7424kB time=00:02:06.72 bitrate= 479.9kbits/s speed=0.995x    frame= 3183 fps= 25 q=28.0 size=    7424kB time=00:02:07.24 bitrate= 478.0kbits/s speed=0.995x    frame= 3197 fps= 25 q=28.0 size=    7424kB time=00:02:07.76 bitrate= 476.0kbits/s speed=0.995x    frame= 3209 fps= 25 q=28.0 size=    7680kB time=00:02:08.28 bitrate= 490.5kbits/s speed=0.995x    frame= 3222 fps= 25 q=28.0 size=    7680kB time=00:02:08.80 bitrate= 488.5kbits/s speed=0.995x    frame= 3235 fps= 25 q=28.0 size=    7680kB time=00:02:09.32 bitrate= 486.5kbits/s speed=0.995x    frame= 3249 fps= 25 q=25.0 size=    7680kB time=00:02:09.84 bitrate= 484.6kbits/s speed=0.995x    frame= 3262 fps= 25 q=28.0 size=    7680kB time=00:02:10.36 bitrate= 482.6kbits/s speed=0.995x    frame= 3274 fps= 25 q=28.0 size=    7680kB time=00:02:10.88 bitrate= 480.7kbits/s speed=0.995x    frame= 3287 fps= 25 q=28.0 size=    7680kB time=00:02:11.40 bitrate= 478.8kbits/s speed=0.995x    frame= 3300 fps= 25 q=28.0 size=    7680kB time=00:02:11.92 bitrate= 476.9kbits/s speed=0.995x    frame= 3313 fps= 25 q=28.0 size=    7680kB time=00:02:12.44 bitrate= 475.0kbits/s speed=0.995x    frame= 3327 fps= 25 q=28.0 size=    7936kB time=00:02:12.96 bitrate= 489.0kbits/s speed=0.995x    frame= 3339 fps= 25 q=28.0 size=    7936kB time=00:02:13.48 bitrate= 487.1kbits/s speed=0.995x    frame= 3352 fps= 25 q=28.0 size=    7936kB time=00:02:14.00 bitrate= 485.2kbits/s speed=0.995x    frame= 3365 fps= 25 q=28.0 size=    7936kB time=00:02:14.52 bitrate= 483.3kbits/s speed=0.995x    frame= 3379 fps= 25 q=28.0 size=    7936kB time=00:02:15.04 bitrate= 481.4kbits/s speed=0.995x    frame= 3391 fps= 25 q=28.0 size=    7936kB time=00:02:15.56 bitrate= 479.6kbits/s speed=0.995x    frame= 3404 fps= 25 q=28.0 size=    7936kB time=00:02:16.08 bitrate= 477.7kbits/s speed=0.995x    frame= 3417 fps= 25 q=28.0 size=    7936kB time=00:02:16.60 bitrate= 475.9kbits/s speed=0.995x    frame= 3430 fps= 25 q=28.0 size=    7936kB time=00:02:17.12 bitrate= 474.1kbits/s speed=0.995x    frame= 3443 fps= 25 q=28.0 size=    7936kB time=00:02:17.64 bitrate= 472.3kbits/s speed=0.995x    frame= 3457 fps= 25 q=28.0 size=    8192kB time=00:02:18.16 bitrate= 485.7kbits/s speed=0.995x    frame= 3469 fps= 25 q=28.0 size=    8192kB time=00:02:18.68 bitrate= 483.9kbits/s speed=0.995x    frame= 3483 fps= 25 q=28.0 size=    8192kB time=00:02:19.20 bitrate= 482.1kbits/s speed=0.995x    frame= 3495 fps= 25 q=28.0 size=    8192kB time=00:02:19.72 bitrate= 480.3kbits/s speed=0.995x    frame= 3509 fps= 25 q=28.0 size=    8192kB time=00:02:20.24 bitrate= 478.5kbits/s speed=0.995x    frame= 3521 fps= 25 q=28.0 size=    8448kB time=00:02:20.76 bitrate= 491.7kbits/s speed=0.995x    frame= 3535 fps= 25 q=28.0 size=    8448kB time=00:02:21.28 bitrate= 489.9kbits/s speed=0.995x    frame= 3548 fps= 25 q=28.0 size=    8448kB time=00:02:21.80 bitrate= 488.1kbits/s speed=0.995x    frame= 3561 fps= 25 q=28.0 size=    8448kB time=00:02:22.32 bitrate= 486.3kbits/s speed=0.995x    frame= 3573 fps= 25 q=28.0 size=    8448kB time=00:02:22.84 bitrate= 484.5kbits/s speed=0.995x    frame= 3587 fps= 25 q=28.0 size=    8448kB time=00:02:23.36 bitrate= 482.7kbits/s speed=0.995x    frame= 3599 fps= 25 q=28.0 size=    8448kB time=00:02:23.88 bitrate= 481.0kbits/s speed=0.995x    frame= 3613 fps= 25 q=28.0 size=    8448kB time=00:02:24.40 bitrate= 479.3kbits/s speed=0.995x    frame= 3626 fps= 25 q=28.0 size=    8448kB time=00:02:24.92 bitrate= 477.5kbits/s speed=0.995x    frame= 3638 fps= 25 q=28.0 size=    8448kB time=00:02:25.44 bitrate= 475.8kbits/s speed=0.995x    frame= 3652 fps= 25 q=28.0 size=    8448kB time=00:02:25.96 bitrate= 474.1kbits/s speed=0.995x    frame= 3664 fps= 25 q=28.0 size=    8704kB time=00:02:26.48 bitrate= 486.8kbits/s speed=0.995x    frame= 3677 fps= 25 q=28.0 size=    8704kB time=00:02:27.00 bitrate= 485.1kbits/s speed=0.995x    [mp4 @ 0x55f127136200] Starting second pass: moving the moov atom to the beginning of the file
[out#0/mp4 @ 0x55f127135580] video:8767kB audio:0kB subtitle:0kB other streams:0kB global headers:0kB muxing overhead: 0.500763%
frame= 3700 fps= 25 q=-1.0 Lsize=    8811kB time=00:02:27.88 bitrate= 488.1kbits/s speed=0.999x    
[libx264 @ 0x55f127136d40] frame I:15    Avg QP:15.20  size:123946
[libx264 @ 0x55f127136d40] frame P:973   Avg QP:23.40  size:  5404
[libx264 @ 0x55f127136d40] frame B:2712  Avg QP:26.78  size:   686
[libx264 @ 0x55f127136d40] consecutive B-frames:  0.7%  3.1%  4.5% 91.7%
[libx264 @ 0x55f127136d40] mb I  I16..4: 57.3%  5.3% 37.4%
[libx264 @ 0x55f127136d40] mb P  I16..4:  1.2%  0.7%  0.5%  P16..4:  5.4%  2.8%  1.6%  0.0%  0.0%    skip:87.8%
[libx264 @ 0x55f127136d40] mb B  I16..4:  0.2%  0.1%  0.0%  B16..8:  1.6%  0.7%  0.1%  direct: 0.5%  skip:96.8%  L0:35.0% L1:42.5% BI:22.6%
[libx264 @ 0x55f127136d40] 8x8 transform intra:20.3% inter:24.2%
[libx264 @ 0x55f127136d40] coded y,uvDC,uvAC intra: 39.8% 44.1% 24.3% inter: 1.2% 1.1% 0.2%
[libx264 @ 0x55f127136d40] i16 v,h,dc,p: 47% 46%  4%  3%
[libx264 @ 0x55f127136d40] i8 v,h,dc,ddl,ddr,vr,hd,vl,hu: 21% 30% 17%  5%  5%  5%  6%  4%  6%
[libx264 @ 0x55f127136d40] i4 v,h,dc,ddl,ddr,vr,hd,vl,hu: 23% 30% 13%  5%  6%  6%  6%  5%  6%
[libx264 @ 0x55f127136d40] i8c dc,h,v,p: 46% 30% 19%  6%
[libx264 @ 0x55f127136d40] Weighted P-Frames: Y:0.0% UV:0.0%
[libx264 @ 0x55f127136d40] kb/s:485.22
